<?xml version="1.0" encoding="UTF-8" standalone="no"?>
<svg
   xmlns:dc="http://purl.org/dc/elements/1.1/"
   xmlns:cc="http://creativecommons.org/ns#"
   xmlns:rdf="http://www.w3.org/1999/02/22-rdf-syntax-ns#"
   xmlns:svg="http://www.w3.org/2000/svg"
   xmlns="http://www.w3.org/2000/svg"
   xmlns:sodipodi="http://sodipodi.sourceforge.net/DTD/sodipodi-0.dtd"
   xmlns:inkscape="http://www.inkscape.org/namespaces/inkscape"
   id="Layer_1"
   version="1.1"
   viewBox="0 0 16 16"
   xml:space="preserve"
   sodipodi:docname="en.svg"
   width="16"
   height="16"
   inkscape:version="0.92.4 (5da689c313, 2019-01-14)"><metadata
     id="metadata39"><rdf:RDF><cc:Work
         rdf:about=""><dc:format>image/svg+xml</dc:format><dc:type
           rdf:resource="http://purl.org/dc/dcmitype/StillImage" /><dc:title></dc:title></cc:Work></rdf:RDF></metadata><defs
     id="defs37" /><sodipodi:namedview
     pagecolor="#ffffff"
     bordercolor="#666666"
     borderopacity="1"
     objecttolerance="10"
     gridtolerance="10"
     guidetolerance="10"
     inkscape:pageopacity="0"
     inkscape:pageshadow="2"
     inkscape:window-width="1920"
     inkscape:window-height="1017"
     id="namedview35"
     showgrid="false"
     inkscape:zoom="14.75"
     inkscape:cx="26.813559"
     inkscape:cy="25.194443"
     inkscape:window-x="1912"
     inkscape:window-y="-8"
     inkscape:window-maximized="1"
     inkscape:current-layer="Layer_1" /><style
     type="text/css"
     id="style2">
	.st0{fill:#FFFFFF;}
	.st1{fill:#BD0034;}
	.st2{fill:#1A237B;}
</style><g
     id="g32"
     transform="matrix(0.03125,0,0,0.03125,0,-0.0015626)"><rect
       class="st0"
       height="298.70001"
       width="512"
       y="106.7"
       id="rect4"
       x="0"
       style="fill:#ffffff" /><polygon
       class="st1"
       points="512,119.9 512,106.7 500.3,106.7 307.4,214.7 342.8,214.7 "
       id="polygon6"
       style="fill:#bd0034" /><polygon
       class="st1"
       points="370.2,303.4 334.8,303.4 512,402.5 512,382.7 "
       id="polygon8"
       style="fill:#bd0034" /><polygon
       class="st1"
       points="0,109.5 0,129.4 151.5,214.7 187,214.7 "
       id="polygon10"
       style="fill:#bd0034" /><polygon
       class="st1"
       points="0,403.6 0,405.4 32.3,405.4 214.4,303.4 178.9,303.4 "
       id="polygon12"
       style="fill:#bd0034" /><polygon
       class="st2"
       points="297.7,207.1 477,106.7 297.7,106.7 "
       id="polygon14"
       style="fill:#1a237b" /><polygon
       class="st2"
       points="218.5,207.1 218.5,106.7 40,106.7 "
       id="polygon16"
       style="fill:#1a237b" /><polygon
       class="st2"
       points="390.4,214.7 512,214.7 512,146.1 "
       id="polygon18"
       style="fill:#1a237b" /><polygon
       class="st2"
       points="390.4,303.4 512,371.1 512,303.4 "
       id="polygon20"
       style="fill:#1a237b" /><polygon
       class="st2"
       points="218.5,310.9 50.1,405.4 218.5,405.4 "
       id="polygon22"
       style="fill:#1a237b" /><polygon
       class="st2"
       points="297.7,310.9 297.7,405.4 466.6,405.4 "
       id="polygon24"
       style="fill:#1a237b" /><polygon
       class="st2"
       points="125.8,303.4 0,303.4 0,374.2 "
       id="polygon26"
       style="fill:#1a237b" /><polygon
       class="st2"
       points="0,143.7 0,214.7 125.8,214.7 "
       id="polygon28"
       style="fill:#1a237b" /><polygon
       class="st1"
       points="281.9,106.7 234.4,106.7 234.4,232.4 0,232.4 0,285.6 234.4,285.6 234.4,405.4 281.9,405.4 281.9,285.6 512,285.6 512,232.4 281.9,232.4 "
       id="polygon30"
       style="fill:#bd0034" /></g></svg>